<svg width="64" height="64" viewBox="0 0 64 64" fill="none" xmlns="http://www.w3.org/2000/svg">
<circle cx="32" cy="32" r="32" fill="#101010"/>
<path d="M51.3852 23.9941C51.3633 22.3532 51.0561 20.7285 50.4774 19.1928C49.9755 17.8975 49.2089 16.7211 48.2266 15.7388C47.2443 14.7565 46.0679 13.9899 44.7725 13.488C43.2566 12.9189 41.6551 12.6112 40.0362 12.578C37.9519 12.4848 37.291 12.4588 32 12.4588C26.709 12.4588 26.0309 12.4588 23.9617 12.578C22.3435 12.6115 20.7428 12.9191 19.2275 13.488C17.932 13.9895 16.7554 14.756 15.7731 15.7383C14.7907 16.7207 14.0243 17.8973 13.5227 19.1928C12.9525 20.7076 12.6455 22.3087 12.6149 23.927C12.5217 26.0135 12.4935 26.6743 12.4935 31.9653C12.4935 37.2563 12.4935 37.9323 12.6149 40.0036C12.6474 41.6243 12.9529 43.2233 13.5227 44.7421C14.0251 46.0373 14.7921 47.2134 15.7748 48.1953C16.7575 49.1772 17.9342 49.9434 19.2297 50.4448C20.7408 51.0367 22.3418 51.3665 23.9639 51.4198C26.0504 51.513 26.7112 51.5411 32.0022 51.5411C37.2932 51.5411 37.9714 51.5411 40.0405 51.4198C41.6594 51.3879 43.261 51.0809 44.7769 50.512C46.0719 50.0095 47.248 49.2427 48.2302 48.2605C49.2124 47.2782 49.9792 46.1021 50.4817 44.8071C51.0515 43.2905 51.357 41.6915 51.3895 40.0686C51.4827 37.9843 51.5109 37.3235 51.5109 32.0303C51.5065 26.7393 51.5065 26.0676 51.3852 23.9941ZM31.987 41.971C26.4534 41.971 21.9705 37.4881 21.9705 31.9545C21.9705 26.4208 26.4534 21.938 31.987 21.938C34.6436 21.938 37.1913 22.9933 39.0698 24.8717C40.9482 26.7502 42.0035 29.2979 42.0035 31.9545C42.0035 34.611 40.9482 37.1587 39.0698 39.0372C37.1913 40.9157 34.6436 41.971 31.987 41.971ZM42.4022 23.9031C42.0954 23.9034 41.7915 23.8432 41.508 23.7259C41.2245 23.6086 40.9669 23.4366 40.75 23.2197C40.5331 23.0027 40.361 22.7451 40.2437 22.4616C40.1265 22.1781 40.0662 21.8743 40.0665 21.5675C40.0665 21.2609 40.1269 20.9573 40.2442 20.6741C40.3616 20.3908 40.5335 20.1335 40.7503 19.9167C40.9671 19.6999 41.2245 19.5279 41.5077 19.4106C41.791 19.2933 42.0945 19.2329 42.4011 19.2329C42.7077 19.2329 43.0113 19.2933 43.2945 19.4106C43.5778 19.5279 43.8351 19.6999 44.0519 19.9167C44.2687 20.1335 44.4407 20.3908 44.558 20.6741C44.6753 20.9573 44.7357 21.2609 44.7357 21.5675C44.7357 22.8588 43.6914 23.9031 42.4022 23.9031Z" fill="url(#paint0_linear_22_6)"/>
<path d="M31.987 38.4611C35.5804 38.4611 38.4935 35.548 38.4935 31.9546C38.4935 28.3611 35.5804 25.4481 31.987 25.4481C28.3936 25.4481 25.4805 28.3611 25.4805 31.9546C25.4805 35.548 28.3936 38.4611 31.987 38.4611Z" fill="url(#paint1_linear_22_6)"/>
<defs>
<linearGradient id="paint0_linear_22_6" x1="32.0022" y1="12.4588" x2="32.0022" y2="51.5411" gradientUnits="userSpaceOnUse">
<stop stop-color="#FF9900"/>
<stop offset="1" stop-color="#FFBF84"/>
</linearGradient>
<linearGradient id="paint1_linear_22_6" x1="31.987" y1="25.4481" x2="31.987" y2="38.4611" gradientUnits="userSpaceOnUse">
<stop stop-color="#FF9900"/>
<stop offset="1" stop-color="#FFBF84"/>
</linearGradient>
</defs>
</svg>
