<svg width="64" height="64" viewBox="0 0 64 64" fill="none" xmlns="http://www.w3.org/2000/svg">
<circle cx="32" cy="32" r="32" fill="#101010"/>
<path fill-rule="evenodd" clip-rule="evenodd" d="M45.5246 18.0981C43.7385 16.3002 41.6134 14.8747 39.2723 13.904C36.9313 12.9332 34.4209 12.4367 31.8866 12.4432C21.2596 12.4432 12.6086 21.0921 12.6043 31.7233C12.6043 35.121 13.4913 38.4371 15.1773 41.3623L12.4432 51.3514L22.6642 48.6689C25.4915 50.2079 28.659 51.0149 31.878 51.0164H31.8866C42.5114 51.0164 51.1624 42.3675 51.1667 31.7362C51.174 29.2029 50.6792 26.6933 49.7107 24.3525C48.7423 22.0116 47.3195 19.8859 45.5246 18.0981ZM31.8866 47.7626H31.8801C29.0097 47.7629 26.1922 46.9906 23.7231 45.5268L23.1389 45.1788L17.0737 46.7703L18.6909 40.8576L18.3108 40.2519C16.706 37.6971 15.8564 34.7404 15.8602 31.7233C15.8645 22.8876 23.053 15.6991 31.893 15.6991C33.9983 15.6945 36.0837 16.1074 38.0283 16.914C39.973 17.7206 41.7384 18.9049 43.2223 20.3984C44.7141 21.8847 45.8966 23.6519 46.7014 25.598C47.5061 27.5441 47.9172 29.6303 47.9108 31.7362C47.9065 40.572 40.718 47.7626 31.8866 47.7626ZM40.6772 35.7589C40.194 35.5162 37.8272 34.3521 37.3848 34.1911C36.9445 34.03 36.6245 33.9505 36.3023 34.4316C35.9802 34.9127 35.0566 35.9973 34.7753 36.3195C34.4939 36.6416 34.2126 36.6803 33.7315 36.4397C33.2504 36.1992 31.6976 35.6902 29.857 34.0493C28.4244 32.7714 27.458 31.195 27.1766 30.7117C26.8953 30.2285 27.1465 29.9686 27.3892 29.7281C27.6062 29.5133 27.8703 29.1654 28.1109 28.884C28.3514 28.6027 28.4309 28.4029 28.592 28.0808C28.753 27.7586 28.6736 27.4773 28.5512 27.2367C28.4309 26.994 27.4666 24.6229 27.0649 23.6586C26.6762 22.7243 26.2789 22.8489 25.9825 22.836C25.6755 22.8235 25.3683 22.8177 25.0611 22.8188C24.8168 22.8251 24.5764 22.8817 24.3551 22.9852C24.1337 23.0887 23.9361 23.2368 23.7746 23.4202C23.3322 23.9034 22.0887 25.0675 22.0887 27.4386C22.0887 29.8097 23.8154 32.1013 24.056 32.4235C24.2965 32.7456 27.4537 37.6102 32.2861 39.6978C33.4372 40.194 34.335 40.4903 35.033 40.7137C36.1863 41.081 37.2366 41.0273 38.0677 40.9049C38.9934 40.7674 40.9178 39.7408 41.3194 38.6154C41.721 37.49 41.721 36.5256 41.6008 36.3238C41.4805 36.1219 41.1562 35.9994 40.6772 35.7589Z" fill="url(#paint0_linear_19_29)"/>
<defs>
<linearGradient id="paint0_linear_19_29" x1="31.805" y1="12.4431" x2="31.805" y2="51.3514" gradientUnits="userSpaceOnUse">
<stop stop-color="#FF9900"/>
<stop offset="1" stop-color="#FFBF84"/>
</linearGradient>
</defs>
</svg>
